<svg xmlns="http://www.w3.org/2000/svg" width="301" height="338" viewBox="0 0 301 338">
  <path id="Union_1" data-name="Union 1" d="M-719.311,205c-.458-4.792-.689-9.67-.689-14.5a151.631,151.631,0,0,1,3.057-30.331,149.741,149.741,0,0,1,8.77-28.25A150.447,150.447,0,0,1-694.3,106.354,151.563,151.563,0,0,1-675.92,84.08,151.562,151.562,0,0,1-653.646,65.7a150.511,150.511,0,0,1,25.564-13.876,149.744,149.744,0,0,1,28.25-8.769q1.362-.279,2.73-.532A90.042,90.042,0,0,1-659-43a90,90,0,0,1,90-90,90,90,0,0,1,90,90,90.038,90.038,0,0,1-62.264,85.645q1.049.2,2.094.413a149.764,149.764,0,0,1,28.25,8.769A150.511,150.511,0,0,1-485.355,65.7,151.565,151.565,0,0,1-463.081,84.08,151.612,151.612,0,0,1-444.7,106.354a150.449,150.449,0,0,1,13.876,25.564,149.787,149.787,0,0,1,8.77,28.25A151.634,151.634,0,0,1-419,190.5c0,4.835-.232,9.713-.689,14.5H-719.311Z" transform="translate(720 133)" fill="#837b94"/>
</svg>
